<svg width="400" height="400" viewBox="0 0 400 400" fill="none" xmlns="http://www.w3.org/2000/svg">
<path d="M76.25 134.84C90.7475 134.84 102.5 123.087 102.5 108.59C102.5 94.0925 90.7475 82.34 76.25 82.34C61.7525 82.34 50 94.0925 50 108.59C50 123.087 61.7525 134.84 76.25 134.84Z" stroke="#6A0BFF" stroke-width="12" stroke-miterlimit="10" stroke-linecap="round" stroke-linejoin="round"/>
<path d="M350 108.59H145.12" stroke="#191919" stroke-width="12" stroke-miterlimit="10" stroke-linecap="round" stroke-linejoin="round"/>
<path d="M76.25 317.81C90.7475 317.81 102.5 306.058 102.5 291.56C102.5 277.063 90.7475 265.31 76.25 265.31C61.7525 265.31 50 277.063 50 291.56C50 306.058 61.7525 317.81 76.25 317.81Z" stroke="#6A0BFF" stroke-width="12" stroke-miterlimit="10" stroke-linecap="round" stroke-linejoin="round"/>
<path d="M350 291.56H145.12" stroke="#191919" stroke-width="12" stroke-miterlimit="10" stroke-linecap="round" stroke-linejoin="round"/>
<path d="M76.25 226.21C90.7475 226.21 102.5 214.457 102.5 199.96C102.5 185.462 90.7475 173.71 76.25 173.71C61.7525 173.71 50 185.462 50 199.96C50 214.457 61.7525 226.21 76.25 226.21Z" stroke="#6A0BFF" stroke-width="12" stroke-miterlimit="10" stroke-linecap="round" stroke-linejoin="round"/>
<path d="M350 199.96H145.12" stroke="#191919" stroke-width="12" stroke-miterlimit="10" stroke-linecap="round" stroke-linejoin="round"/>
</svg>
